<svg width="44" height="44" viewBox="0 0 44 44" fill="none" xmlns="http://www.w3.org/2000/svg">
<path d="M22 23.298L12.3823 32.9157C12.2112 33.0868 12.001 33.1785 11.7517 33.1907C11.5023 33.2029 11.2799 33.1112 11.0843 32.9157C10.8888 32.7201 10.791 32.5038 10.791 32.2667C10.791 32.0296 10.8888 31.8132 11.0843 31.6177L20.702 22L11.0843 12.3823C10.9132 12.2112 10.8216 12.001 10.8093 11.7517C10.7971 11.5023 10.8888 11.2799 11.0843 11.0843C11.2799 10.8888 11.4962 10.791 11.7333 10.791C11.9704 10.791 12.1868 10.8888 12.3823 11.0843L22 20.702L31.6177 11.0843C31.7888 10.9132 31.9996 10.8216 32.2502 10.8093C32.4983 10.7971 32.7201 10.8888 32.9157 11.0843C33.1112 11.2799 33.209 11.4962 33.209 11.7333C33.209 11.9705 33.1112 12.1868 32.9157 12.3823L23.298 22L32.9157 31.6177C33.0868 31.7888 33.1784 31.9996 33.1907 32.2502C33.2029 32.4983 33.1112 32.7201 32.9157 32.9157C32.7201 33.1112 32.5038 33.209 32.2667 33.209C32.0296 33.209 31.8132 33.1112 31.6177 32.9157L22 23.298Z" fill="black"/>
</svg>
