<svg width="150" height="100" viewBox="0 0 150 100" fill="none" xmlns="http://www.w3.org/2000/svg">
<rect width="150" height="100" fill="white"/>
<path d="M53.584 52.112C54.672 52.048 55.632 52.272 56.464 52.784C57.296 53.296 57.712 53.968 57.712 54.8C57.712 56.208 56.624 57.104 54.448 57.488C53.808 57.552 52.784 57.712 51.376 57.968C49.968 58.16 49.072 58.288 48.688 58.352C48.304 58.416 47.6 58.544 46.576 58.736C45.616 58.928 44.784 59.152 44.08 59.408C43.376 59.6 42.448 59.856 41.296 60.176C40.144 60.496 38.864 60.88 37.456 61.328C33.744 62.48 31.248 63.472 29.968 64.304C27.216 66.096 25.84 68.688 25.84 72.08C25.84 75.216 25.648 77.424 25.264 78.704C23.216 78.384 21.936 77.168 21.424 75.056C20.784 72.368 20.048 70.544 19.216 69.584C19.088 69.456 18.832 69.232 18.448 68.912C18.128 68.592 17.936 68.4 17.872 68.336C17.808 68.272 17.648 68.112 17.392 67.856C17.2 67.6 17.104 67.44 17.104 67.376C17.104 67.248 17.04 67.088 16.912 66.896C16.784 66.704 16.752 66.576 16.816 66.512C16.88 66.384 16.912 66.224 16.912 66.032C16.976 65.84 17.04 65.68 17.104 65.552C17.232 65.36 17.36 65.168 17.488 64.976C17.68 64.72 17.904 64.464 18.16 64.208C18.288 64.016 18.512 63.76 18.832 63.44C19.152 63.12 19.344 62.928 19.408 62.864C19.472 62.736 19.6 62.576 19.792 62.384C19.984 62.128 20.08 61.904 20.08 61.712C20.144 61.52 20.24 61.264 20.368 60.944C20.496 60.624 20.624 60.24 20.752 59.792C21.456 56.784 20.816 55.248 18.832 55.184C17.552 55.12 16.624 54.512 16.048 53.36C15.472 52.208 15.696 51.248 16.72 50.48C17.616 49.84 18.32 49.264 18.832 48.752C19.344 48.24 19.824 47.504 20.272 46.544C20.784 45.584 21.072 44.496 21.136 43.28C21.328 40.464 22.192 38.64 23.728 37.808C23.856 37.936 24.016 38.096 24.208 38.288C24.464 38.416 24.624 38.544 24.688 38.672C24.816 38.8 24.976 38.96 25.168 39.152C25.36 39.28 25.488 39.44 25.552 39.632C25.68 39.824 25.808 40.08 25.936 40.4C26.064 40.72 26.192 41.072 26.32 41.456L27.568 45.296C28.336 45.04 29.392 44.624 30.736 44.048C32.144 43.408 33.36 42.832 34.384 42.32C35.472 41.808 36.752 41.296 38.224 40.784C39.76 40.208 41.072 39.792 42.16 39.536C43.312 39.28 44.592 39.12 46 39.056C47.472 38.992 48.72 39.184 49.744 39.632C50.512 39.888 51.184 40.528 51.76 41.552C49.648 42.896 45.936 44.464 40.624 46.256C35.376 47.984 31.824 49.296 29.968 50.192C26.384 51.92 25.072 54.864 26.032 59.024C28.976 58.64 33.488 57.456 39.568 55.472C45.648 53.488 50.32 52.368 53.584 52.112ZM137.678 52.112C138.766 52.048 139.726 52.272 140.558 52.784C141.39 53.296 141.806 53.968 141.806 54.8C141.806 56.208 140.718 57.104 138.542 57.488C137.902 57.552 136.878 57.712 135.47 57.968C134.062 58.16 133.166 58.288 132.782 58.352C132.398 58.416 131.694 58.544 130.67 58.736C129.71 58.928 128.878 59.152 128.174 59.408C127.47 59.6 126.542 59.856 125.39 60.176C124.238 60.496 122.958 60.88 121.55 61.328C117.838 62.48 115.342 63.472 114.062 64.304C111.31 66.096 109.934 68.688 109.934 72.08C109.934 75.216 109.742 77.424 109.358 78.704C107.31 78.384 106.03 77.168 105.518 75.056C104.878 72.368 104.142 70.544 103.31 69.584C103.182 69.456 102.926 69.232 102.542 68.912C102.222 68.592 102.03 68.4 101.966 68.336C101.902 68.272 101.742 68.112 101.486 67.856C101.294 67.6 101.198 67.44 101.198 67.376C101.198 67.248 101.134 67.088 101.006 66.896C100.878 66.704 100.846 66.576 100.91 66.512C100.974 66.384 101.006 66.224 101.006 66.032C101.07 65.84 101.134 65.68 101.198 65.552C101.326 65.36 101.454 65.168 101.582 64.976C101.774 64.72 101.998 64.464 102.254 64.208C102.382 64.016 102.606 63.76 102.926 63.44C103.246 63.12 103.438 62.928 103.502 62.864C103.566 62.736 103.694 62.576 103.886 62.384C104.078 62.128 104.174 61.904 104.174 61.712C104.238 61.52 104.334 61.264 104.462 60.944C104.59 60.624 104.718 60.24 104.846 59.792C105.55 56.784 104.91 55.248 102.926 55.184C101.646 55.12 100.718 54.512 100.142 53.36C99.5658 52.208 99.7898 51.248 100.814 50.48C101.71 49.84 102.414 49.264 102.926 48.752C103.438 48.24 103.918 47.504 104.366 46.544C104.878 45.584 105.166 44.496 105.23 43.28C105.422 40.464 106.286 38.64 107.822 37.808C107.95 37.936 108.11 38.096 108.302 38.288C108.558 38.416 108.718 38.544 108.782 38.672C108.91 38.8 109.07 38.96 109.262 39.152C109.454 39.28 109.582 39.44 109.646 39.632C109.774 39.824 109.902 40.08 110.03 40.4C110.158 40.72 110.286 41.072 110.414 41.456L111.662 45.296C112.43 45.04 113.486 44.624 114.83 44.048C116.238 43.408 117.454 42.832 118.478 42.32C119.566 41.808 120.846 41.296 122.318 40.784C123.854 40.208 125.166 39.792 126.254 39.536C127.406 39.28 128.686 39.12 130.094 39.056C131.566 38.992 132.814 39.184 133.838 39.632C134.606 39.888 135.278 40.528 135.854 41.552C133.742 42.896 130.03 44.464 124.718 46.256C119.47 47.984 115.918 49.296 114.062 50.192C110.478 51.92 109.166 54.864 110.126 59.024C113.07 58.64 117.582 57.456 123.662 55.472C129.742 53.488 134.414 52.368 137.678 52.112Z" fill="#110875"/>
<path d="M57.19 40.016C58.278 39.568 59.43 39.376 60.646 39.44C61.862 39.504 62.822 40.016 63.526 40.976C66.214 44.88 68.422 47.664 70.15 49.328L75.334 54.416C76.934 52.944 79.238 50.832 82.246 48.08C85.254 45.264 87.526 43.088 89.062 41.552C89.894 40.784 90.854 39.792 91.942 38.576C93.094 37.296 93.926 36.4 94.438 35.888C95.014 35.376 95.814 34.768 96.838 34.064C97.862 33.36 99.046 32.72 100.39 32.144C100.646 32.08 101.126 32.432 101.83 33.2C102.534 33.904 102.822 34.48 102.694 34.928C102.694 35.376 102.534 35.856 102.214 36.368C101.958 36.816 101.574 37.328 101.062 37.904C100.55 38.416 100.07 38.864 99.622 39.248C99.174 39.632 98.598 40.112 97.894 40.688C97.19 41.2 96.774 41.488 96.646 41.552C95.878 42.512 94.502 43.888 92.518 45.68C90.534 47.472 88.774 49.104 87.238 50.576C85.702 52.048 84.326 53.904 83.11 56.144C81.894 58.384 81.35 60.592 81.478 62.768C81.926 69.936 81.894 74.544 81.382 76.592C80.934 78.32 80.198 79.28 79.174 79.472C78.406 79.536 77.734 79.28 77.158 78.704C76.646 78.064 76.23 77.072 75.91 75.728C75.526 74 75.334 70.704 75.334 65.84C75.334 64.048 74.918 62.352 74.086 60.752C73.318 59.088 72.294 57.648 71.014 56.432C69.798 55.152 68.422 53.84 66.886 52.496C65.35 51.152 63.91 49.904 62.566 48.752C61.286 47.6 60.134 46.256 59.11 44.72C58.086 43.184 57.446 41.616 57.19 40.016Z" fill="#4D4FFA"/>
</svg>
