<svg width="225" height="225" viewBox="0 0 225 225" fill="none" xmlns="http://www.w3.org/2000/svg">
<rect width="225" height="225" fill="white"/>
<path d="M91.084 114.612C92.172 114.548 93.132 114.772 93.964 115.284C94.796 115.796 95.212 116.468 95.212 117.3C95.212 118.708 94.124 119.604 91.948 119.988C91.308 120.052 90.284 120.212 88.876 120.468C87.468 120.66 86.572 120.788 86.188 120.852C85.804 120.916 85.1 121.044 84.076 121.236C83.116 121.428 82.284 121.652 81.58 121.908C80.876 122.1 79.948 122.356 78.796 122.676C77.644 122.996 76.364 123.38 74.956 123.828C71.244 124.98 68.748 125.972 67.468 126.804C64.716 128.596 63.34 131.188 63.34 134.58C63.34 137.716 63.148 139.924 62.764 141.204C60.716 140.884 59.436 139.668 58.924 137.556C58.284 134.868 57.548 133.044 56.716 132.084C56.588 131.956 56.332 131.732 55.948 131.412C55.628 131.092 55.436 130.9 55.372 130.836C55.308 130.772 55.148 130.612 54.892 130.356C54.7 130.1 54.604 129.94 54.604 129.876C54.604 129.748 54.54 129.588 54.412 129.396C54.284 129.204 54.252 129.076 54.316 129.012C54.38 128.884 54.412 128.724 54.412 128.532C54.476 128.34 54.54 128.18 54.604 128.052C54.732 127.86 54.86 127.668 54.988 127.476C55.18 127.22 55.404 126.964 55.66 126.708C55.788 126.516 56.012 126.26 56.332 125.94C56.652 125.62 56.844 125.428 56.908 125.364C56.972 125.236 57.1 125.076 57.292 124.884C57.484 124.628 57.58 124.404 57.58 124.212C57.644 124.02 57.74 123.764 57.868 123.444C57.996 123.124 58.124 122.74 58.252 122.292C58.956 119.284 58.316 117.748 56.332 117.684C55.052 117.62 54.124 117.012 53.548 115.86C52.972 114.708 53.196 113.748 54.22 112.98C55.116 112.34 55.82 111.764 56.332 111.252C56.844 110.74 57.324 110.004 57.772 109.044C58.284 108.084 58.572 106.996 58.636 105.78C58.828 102.964 59.692 101.14 61.228 100.308C61.356 100.436 61.516 100.596 61.708 100.788C61.964 100.916 62.124 101.044 62.188 101.172C62.316 101.3 62.476 101.46 62.668 101.652C62.86 101.78 62.988 101.94 63.052 102.132C63.18 102.324 63.308 102.58 63.436 102.9C63.564 103.22 63.692 103.572 63.82 103.956L65.068 107.796C65.836 107.54 66.892 107.124 68.236 106.548C69.644 105.908 70.86 105.332 71.884 104.82C72.972 104.308 74.252 103.796 75.724 103.284C77.26 102.708 78.572 102.292 79.66 102.036C80.812 101.78 82.092 101.62 83.5 101.556C84.972 101.492 86.22 101.684 87.244 102.132C88.012 102.388 88.684 103.028 89.26 104.052C87.148 105.396 83.436 106.964 78.124 108.756C72.876 110.484 69.324 111.796 67.468 112.692C63.884 114.42 62.572 117.364 63.532 121.524C66.476 121.14 70.988 119.956 77.068 117.972C83.148 115.988 87.82 114.868 91.084 114.612ZM175.178 114.612C176.266 114.548 177.226 114.772 178.058 115.284C178.89 115.796 179.306 116.468 179.306 117.3C179.306 118.708 178.218 119.604 176.042 119.988C175.402 120.052 174.378 120.212 172.97 120.468C171.562 120.66 170.666 120.788 170.282 120.852C169.898 120.916 169.194 121.044 168.17 121.236C167.21 121.428 166.378 121.652 165.674 121.908C164.97 122.1 164.042 122.356 162.89 122.676C161.738 122.996 160.458 123.38 159.05 123.828C155.338 124.98 152.842 125.972 151.562 126.804C148.81 128.596 147.434 131.188 147.434 134.58C147.434 137.716 147.242 139.924 146.858 141.204C144.81 140.884 143.53 139.668 143.018 137.556C142.378 134.868 141.642 133.044 140.81 132.084C140.682 131.956 140.426 131.732 140.042 131.412C139.722 131.092 139.53 130.9 139.466 130.836C139.402 130.772 139.242 130.612 138.986 130.356C138.794 130.1 138.698 129.94 138.698 129.876C138.698 129.748 138.634 129.588 138.506 129.396C138.378 129.204 138.346 129.076 138.41 129.012C138.474 128.884 138.506 128.724 138.506 128.532C138.57 128.34 138.634 128.18 138.698 128.052C138.826 127.86 138.954 127.668 139.082 127.476C139.274 127.22 139.498 126.964 139.754 126.708C139.882 126.516 140.106 126.26 140.426 125.94C140.746 125.62 140.938 125.428 141.002 125.364C141.066 125.236 141.194 125.076 141.386 124.884C141.578 124.628 141.674 124.404 141.674 124.212C141.738 124.02 141.834 123.764 141.962 123.444C142.09 123.124 142.218 122.74 142.346 122.292C143.05 119.284 142.41 117.748 140.426 117.684C139.146 117.62 138.218 117.012 137.642 115.86C137.066 114.708 137.29 113.748 138.314 112.98C139.21 112.34 139.914 111.764 140.426 111.252C140.938 110.74 141.418 110.004 141.866 109.044C142.378 108.084 142.666 106.996 142.73 105.78C142.922 102.964 143.786 101.14 145.322 100.308C145.45 100.436 145.61 100.596 145.802 100.788C146.058 100.916 146.218 101.044 146.282 101.172C146.41 101.3 146.57 101.46 146.762 101.652C146.954 101.78 147.082 101.94 147.146 102.132C147.274 102.324 147.402 102.58 147.53 102.9C147.658 103.22 147.786 103.572 147.914 103.956L149.162 107.796C149.93 107.54 150.986 107.124 152.33 106.548C153.738 105.908 154.954 105.332 155.978 104.82C157.066 104.308 158.346 103.796 159.818 103.284C161.354 102.708 162.666 102.292 163.754 102.036C164.906 101.78 166.186 101.62 167.594 101.556C169.066 101.492 170.314 101.684 171.338 102.132C172.106 102.388 172.778 103.028 173.354 104.052C171.242 105.396 167.53 106.964 162.218 108.756C156.97 110.484 153.418 111.796 151.562 112.692C147.978 114.42 146.666 117.364 147.626 121.524C150.57 121.14 155.082 119.956 161.162 117.972C167.242 115.988 171.914 114.868 175.178 114.612Z" fill="#110875"/>
<path d="M94.69 102.516C95.778 102.068 96.93 101.876 98.146 101.94C99.362 102.004 100.322 102.516 101.026 103.476C103.714 107.38 105.922 110.164 107.65 111.828L112.834 116.916C114.434 115.444 116.738 113.332 119.746 110.58C122.754 107.764 125.026 105.588 126.562 104.052C127.394 103.284 128.354 102.292 129.442 101.076C130.594 99.796 131.426 98.9 131.938 98.388C132.514 97.876 133.314 97.268 134.338 96.564C135.362 95.86 136.546 95.22 137.89 94.644C138.146 94.58 138.626 94.932 139.33 95.7C140.034 96.404 140.322 96.98 140.194 97.428C140.194 97.876 140.034 98.356 139.714 98.868C139.458 99.316 139.074 99.828 138.562 100.404C138.05 100.916 137.57 101.364 137.122 101.748C136.674 102.132 136.098 102.612 135.394 103.188C134.69 103.7 134.274 103.988 134.146 104.052C133.378 105.012 132.002 106.388 130.018 108.18C128.034 109.972 126.274 111.604 124.738 113.076C123.202 114.548 121.826 116.404 120.61 118.644C119.394 120.884 118.85 123.092 118.978 125.268C119.426 132.436 119.394 137.044 118.882 139.092C118.434 140.82 117.698 141.78 116.674 141.972C115.906 142.036 115.234 141.78 114.658 141.204C114.146 140.564 113.73 139.572 113.41 138.228C113.026 136.5 112.834 133.204 112.834 128.34C112.834 126.548 112.418 124.852 111.586 123.252C110.818 121.588 109.794 120.148 108.514 118.932C107.298 117.652 105.922 116.34 104.386 114.996C102.85 113.652 101.41 112.404 100.066 111.252C98.786 110.1 97.634 108.756 96.61 107.22C95.586 105.684 94.946 104.116 94.69 102.516Z" fill="#4D4FFA"/>
</svg>
