<svg width="331" height="125" viewBox="0 0 331 125" fill="none" xmlns="http://www.w3.org/2000/svg">
<path d="M100.5 52.75C103.333 52.5833 105.833 53.1667 108 54.5C110.167 55.8333 111.25 57.5833 111.25 59.75C111.25 63.4167 108.417 65.75 102.75 66.75C101.083 66.9167 98.4167 67.3333 94.75 68C91.0833 68.5 88.75 68.8333 87.75 69C86.75 69.1667 84.9167 69.5 82.25 70C79.75 70.5 77.5833 71.0833 75.75 71.75C73.9167 72.25 71.5 72.9167 68.5 73.75C65.5 74.5833 62.1667 75.5833 58.5 76.75C48.8333 79.75 42.3333 82.3333 39 84.5C31.8333 89.1667 28.25 95.9167 28.25 104.75C28.25 112.917 27.75 118.667 26.75 122C21.4167 121.167 18.0833 118 16.75 112.5C15.0833 105.5 13.1667 100.75 11 98.25C10.6667 97.9167 10 97.3333 9 96.5C8.16667 95.6667 7.66667 95.1667 7.5 95C7.33333 94.8333 6.91667 94.4167 6.25 93.75C5.75 93.0833 5.5 92.6667 5.5 92.5C5.5 92.1667 5.33333 91.75 5 91.25C4.66667 90.75 4.58333 90.4167 4.75 90.25C4.91667 89.9167 5 89.5 5 89C5.16667 88.5 5.33333 88.0833 5.5 87.75C5.83333 87.25 6.16667 86.75 6.5 86.25C7 85.5833 7.58333 84.9167 8.25 84.25C8.58333 83.75 9.16667 83.0833 10 82.25C10.8333 81.4167 11.3333 80.9167 11.5 80.75C11.6667 80.4167 12 80 12.5 79.5C13 78.8333 13.25 78.25 13.25 77.75C13.4167 77.25 13.6667 76.5833 14 75.75C14.3333 74.9167 14.6667 73.9167 15 72.75C16.8333 64.9167 15.1667 60.9167 10 60.75C6.66667 60.5833 4.25 59 2.75 56C1.25 53 1.83333 50.5 4.5 48.5C6.83333 46.8333 8.66667 45.3333 10 44C11.3333 42.6667 12.5833 40.75 13.75 38.25C15.0833 35.75 15.8333 32.9167 16 29.75C16.5 22.4167 18.75 17.6667 22.75 15.5C23.0833 15.8333 23.5 16.25 24 16.75C24.6667 17.0833 25.0833 17.4167 25.25 17.75C25.5833 18.0833 26 18.5 26.5 19C27 19.3333 27.3333 19.75 27.5 20.25C27.8333 20.75 28.1667 21.4167 28.5 22.25C28.8333 23.0833 29.1667 24 29.5 25L32.75 35C34.75 34.3333 37.5 33.25 41 31.75C44.6667 30.0833 47.8333 28.5833 50.5 27.25C53.3333 25.9167 56.6667 24.5833 60.5 23.25C64.5 21.75 67.9167 20.6667 70.75 20C73.75 19.3333 77.0833 18.9167 80.75 18.75C84.5833 18.5833 87.8333 19.0833 90.5 20.25C92.5 20.9167 94.25 22.5833 95.75 25.25C90.25 28.75 80.5833 32.8333 66.75 37.5C53.0833 42 43.8333 45.4167 39 47.75C29.6667 52.25 26.25 59.9167 28.75 70.75C36.4167 69.75 48.1667 66.6667 64 61.5C79.8333 56.3333 92 53.4167 100.5 52.75ZM319.494 52.75C322.327 52.5833 324.827 53.1667 326.994 54.5C329.161 55.8333 330.244 57.5833 330.244 59.75C330.244 63.4167 327.411 65.75 321.744 66.75C320.077 66.9167 317.411 67.3333 313.744 68C310.077 68.5 307.744 68.8333 306.744 69C305.744 69.1667 303.911 69.5 301.244 70C298.744 70.5 296.577 71.0833 294.744 71.75C292.911 72.25 290.494 72.9167 287.494 73.75C284.494 74.5833 281.161 75.5833 277.494 76.75C267.827 79.75 261.327 82.3333 257.994 84.5C250.827 89.1667 247.244 95.9167 247.244 104.75C247.244 112.917 246.744 118.667 245.744 122C240.411 121.167 237.077 118 235.744 112.5C234.077 105.5 232.161 100.75 229.994 98.25C229.661 97.9167 228.994 97.3333 227.994 96.5C227.161 95.6667 226.661 95.1667 226.494 95C226.327 94.8333 225.911 94.4167 225.244 93.75C224.744 93.0833 224.494 92.6667 224.494 92.5C224.494 92.1667 224.327 91.75 223.994 91.25C223.661 90.75 223.577 90.4167 223.744 90.25C223.911 89.9167 223.994 89.5 223.994 89C224.161 88.5 224.327 88.0833 224.494 87.75C224.827 87.25 225.161 86.75 225.494 86.25C225.994 85.5833 226.577 84.9167 227.244 84.25C227.577 83.75 228.161 83.0833 228.994 82.25C229.827 81.4167 230.327 80.9167 230.494 80.75C230.661 80.4167 230.994 80 231.494 79.5C231.994 78.8333 232.244 78.25 232.244 77.75C232.411 77.25 232.661 76.5833 232.994 75.75C233.327 74.9167 233.661 73.9167 233.994 72.75C235.827 64.9167 234.161 60.9167 228.994 60.75C225.661 60.5833 223.244 59 221.744 56C220.244 53 220.827 50.5 223.494 48.5C225.827 46.8333 227.661 45.3333 228.994 44C230.327 42.6667 231.577 40.75 232.744 38.25C234.077 35.75 234.827 32.9167 234.994 29.75C235.494 22.4167 237.744 17.6667 241.744 15.5C242.077 15.8333 242.494 16.25 242.994 16.75C243.661 17.0833 244.077 17.4167 244.244 17.75C244.577 18.0833 244.994 18.5 245.494 19C245.994 19.3333 246.327 19.75 246.494 20.25C246.827 20.75 247.161 21.4167 247.494 22.25C247.827 23.0833 248.161 24 248.494 25L251.744 35C253.744 34.3333 256.494 33.25 259.994 31.75C263.661 30.0833 266.827 28.5833 269.494 27.25C272.327 25.9167 275.661 24.5833 279.494 23.25C283.494 21.75 286.911 20.6667 289.744 20C292.744 19.3333 296.077 18.9167 299.744 18.75C303.577 18.5833 306.827 19.0833 309.494 20.25C311.494 20.9167 313.244 22.5833 314.744 25.25C309.244 28.75 299.577 32.8333 285.744 37.5C272.077 42 262.827 45.4167 257.994 47.75C248.661 52.25 245.244 59.9167 247.744 70.75C255.411 69.75 267.161 66.6667 282.994 61.5C298.827 56.3333 310.994 53.4167 319.494 52.75Z" fill="white"/>
<path d="M109.891 21.25C112.724 20.0833 115.724 19.5833 118.891 19.75C122.057 19.9167 124.557 21.25 126.391 23.75C133.391 33.9167 139.141 41.1667 143.641 45.5L157.141 58.75C161.307 54.9167 167.307 49.4167 175.141 42.25C182.974 34.9167 188.891 29.25 192.891 25.25C195.057 23.25 197.557 20.6667 200.391 17.5C203.391 14.1667 205.557 11.8333 206.891 10.5C208.391 9.16666 210.474 7.58333 213.141 5.75C215.807 3.91666 218.891 2.24999 222.391 0.749988C223.057 0.583323 224.307 1.49999 226.141 3.5C227.974 5.33333 228.724 6.83333 228.391 8C228.391 9.16666 227.974 10.4167 227.141 11.75C226.474 12.9167 225.474 14.25 224.141 15.75C222.807 17.0833 221.557 18.25 220.391 19.25C219.224 20.25 217.724 21.5 215.891 23C214.057 24.3333 212.974 25.0833 212.641 25.25C210.641 27.75 207.057 31.3333 201.891 36C196.724 40.6667 192.141 44.9167 188.141 48.75C184.141 52.5833 180.557 57.4167 177.391 63.25C174.224 69.0833 172.807 74.8333 173.141 80.5C174.307 99.1667 174.224 111.167 172.891 116.5C171.724 121 169.807 123.5 167.141 124C165.141 124.167 163.391 123.5 161.891 122C160.557 120.333 159.474 117.75 158.641 114.25C157.641 109.75 157.141 101.167 157.141 88.5C157.141 83.8333 156.057 79.4167 153.891 75.25C151.891 70.9167 149.224 67.1667 145.891 64C142.724 60.6667 139.141 57.25 135.141 53.75C131.141 50.25 127.391 47 123.891 44C120.557 41 117.557 37.5 114.891 33.5C112.224 29.5 110.557 25.4167 109.891 21.25Z" fill="#F2A61C"/>
</svg>
