<svg width="127" height="48" viewBox="0 0 127 48" fill="none" xmlns="http://www.w3.org/2000/svg">
<path d="M38.584 20.112C39.672 20.048 40.632 20.272 41.464 20.784C42.296 21.296 42.712 21.968 42.712 22.8C42.712 24.208 41.624 25.104 39.448 25.488C38.808 25.552 37.784 25.712 36.376 25.968C34.968 26.16 34.072 26.288 33.688 26.352C33.304 26.416 32.6 26.544 31.576 26.736C30.616 26.928 29.784 27.152 29.08 27.408C28.376 27.6 27.448 27.856 26.296 28.176C25.144 28.496 23.864 28.88 22.456 29.328C18.744 30.48 16.248 31.472 14.968 32.304C12.216 34.096 10.84 36.688 10.84 40.08C10.84 43.216 10.648 45.424 10.264 46.704C8.216 46.384 6.936 45.168 6.424 43.056C5.784 40.368 5.048 38.544 4.216 37.584C4.088 37.456 3.832 37.232 3.448 36.912C3.128 36.592 2.936 36.4 2.872 36.336C2.808 36.272 2.648 36.112 2.392 35.856C2.2 35.6 2.104 35.44 2.104 35.376C2.104 35.248 2.04 35.088 1.912 34.896C1.784 34.704 1.752 34.576 1.816 34.512C1.88 34.384 1.912 34.224 1.912 34.032C1.976 33.84 2.04 33.68 2.104 33.552C2.232 33.36 2.36 33.168 2.488 32.976C2.68 32.72 2.904 32.464 3.16 32.208C3.288 32.016 3.512 31.76 3.832 31.44C4.152 31.12 4.344 30.928 4.408 30.864C4.472 30.736 4.6 30.576 4.792 30.384C4.984 30.128 5.08 29.904 5.08 29.712C5.144 29.52 5.24 29.264 5.368 28.944C5.496 28.624 5.624 28.24 5.752 27.792C6.456 24.784 5.816 23.248 3.832 23.184C2.552 23.12 1.624 22.512 1.048 21.36C0.472 20.208 0.696 19.248 1.72 18.48C2.616 17.84 3.32 17.264 3.832 16.752C4.344 16.24 4.824 15.504 5.272 14.544C5.784 13.584 6.072 12.496 6.136 11.28C6.328 8.464 7.192 6.64 8.728 5.808C8.856 5.936 9.016 6.096 9.208 6.288C9.464 6.416 9.624 6.544 9.688 6.672C9.816 6.8 9.976 6.96 10.168 7.152C10.36 7.28 10.488 7.44 10.552 7.632C10.68 7.824 10.808 8.08 10.936 8.4C11.064 8.72 11.192 9.072 11.32 9.456L12.568 13.296C13.336 13.04 14.392 12.624 15.736 12.048C17.144 11.408 18.36 10.832 19.384 10.32C20.472 9.808 21.752 9.296 23.224 8.784C24.76 8.208 26.072 7.792 27.16 7.536C28.312 7.28 29.592 7.12 31 7.056C32.472 6.992 33.72 7.184 34.744 7.632C35.512 7.888 36.184 8.528 36.76 9.552C34.648 10.896 30.936 12.464 25.624 14.256C20.376 15.984 16.824 17.296 14.968 18.192C11.384 19.92 10.072 22.864 11.032 27.024C13.976 26.64 18.488 25.456 24.568 23.472C30.648 21.488 35.32 20.368 38.584 20.112ZM122.678 20.112C123.766 20.048 124.726 20.272 125.558 20.784C126.39 21.296 126.806 21.968 126.806 22.8C126.806 24.208 125.718 25.104 123.542 25.488C122.902 25.552 121.878 25.712 120.47 25.968C119.062 26.16 118.166 26.288 117.782 26.352C117.398 26.416 116.694 26.544 115.67 26.736C114.71 26.928 113.878 27.152 113.174 27.408C112.47 27.6 111.542 27.856 110.39 28.176C109.238 28.496 107.958 28.88 106.55 29.328C102.838 30.48 100.342 31.472 99.0618 32.304C96.3098 34.096 94.9338 36.688 94.9338 40.08C94.9338 43.216 94.7418 45.424 94.3578 46.704C92.3098 46.384 91.0298 45.168 90.5178 43.056C89.8778 40.368 89.1418 38.544 88.3098 37.584C88.1818 37.456 87.9258 37.232 87.5418 36.912C87.2218 36.592 87.0298 36.4 86.9658 36.336C86.9018 36.272 86.7418 36.112 86.4858 35.856C86.2938 35.6 86.1978 35.44 86.1978 35.376C86.1978 35.248 86.1338 35.088 86.0058 34.896C85.8778 34.704 85.8458 34.576 85.9098 34.512C85.9738 34.384 86.0058 34.224 86.0058 34.032C86.0698 33.84 86.1338 33.68 86.1978 33.552C86.3258 33.36 86.4538 33.168 86.5818 32.976C86.7738 32.72 86.9978 32.464 87.2538 32.208C87.3818 32.016 87.6058 31.76 87.9258 31.44C88.2458 31.12 88.4378 30.928 88.5018 30.864C88.5658 30.736 88.6938 30.576 88.8858 30.384C89.0778 30.128 89.1738 29.904 89.1738 29.712C89.2378 29.52 89.3338 29.264 89.4618 28.944C89.5898 28.624 89.7178 28.24 89.8458 27.792C90.5498 24.784 89.9098 23.248 87.9258 23.184C86.6458 23.12 85.7178 22.512 85.1418 21.36C84.5658 20.208 84.7898 19.248 85.8138 18.48C86.7098 17.84 87.4138 17.264 87.9258 16.752C88.4378 16.24 88.9178 15.504 89.3658 14.544C89.8778 13.584 90.1658 12.496 90.2298 11.28C90.4218 8.464 91.2858 6.64 92.8218 5.808C92.9498 5.936 93.1098 6.096 93.3018 6.288C93.5578 6.416 93.7178 6.544 93.7818 6.672C93.9098 6.8 94.0698 6.96 94.2618 7.152C94.4538 7.28 94.5818 7.44 94.6458 7.632C94.7738 7.824 94.9018 8.08 95.0298 8.4C95.1578 8.72 95.2858 9.072 95.4138 9.456L96.6618 13.296C97.4298 13.04 98.4858 12.624 99.8298 12.048C101.238 11.408 102.454 10.832 103.478 10.32C104.566 9.808 105.846 9.296 107.318 8.784C108.854 8.208 110.166 7.792 111.254 7.536C112.406 7.28 113.686 7.12 115.094 7.056C116.566 6.992 117.814 7.184 118.838 7.632C119.606 7.888 120.278 8.528 120.854 9.552C118.742 10.896 115.03 12.464 109.718 14.256C104.47 15.984 100.918 17.296 99.0618 18.192C95.4778 19.92 94.1658 22.864 95.1258 27.024C98.0698 26.64 102.582 25.456 108.662 23.472C114.742 21.488 119.414 20.368 122.678 20.112Z" fill="#0F0E0E"/>
<path d="M42.19 8.016C43.278 7.568 44.43 7.376 45.646 7.44C46.862 7.504 47.822 8.016 48.526 8.976C51.214 12.88 53.422 15.664 55.15 17.328L60.334 22.416C61.934 20.944 64.238 18.832 67.246 16.08C70.254 13.264 72.526 11.088 74.062 9.552C74.894 8.784 75.854 7.792 76.942 6.576C78.094 5.296 78.926 4.4 79.438 3.888C80.014 3.376 80.814 2.768 81.838 2.064C82.862 1.36 84.046 0.719995 85.39 0.143995C85.646 0.0799961 86.126 0.431997 86.83 1.2C87.534 1.904 87.822 2.48 87.694 2.928C87.694 3.376 87.534 3.856 87.214 4.368C86.958 4.816 86.574 5.328 86.062 5.904C85.55 6.416 85.07 6.864 84.622 7.248C84.174 7.632 83.598 8.112 82.894 8.688C82.19 9.2 81.774 9.488 81.646 9.552C80.878 10.512 79.502 11.888 77.518 13.68C75.534 15.472 73.774 17.104 72.238 18.576C70.702 20.048 69.326 21.904 68.11 24.144C66.894 26.384 66.35 28.592 66.478 30.768C66.926 37.936 66.894 42.544 66.382 44.592C65.934 46.32 65.198 47.28 64.174 47.472C63.406 47.536 62.734 47.28 62.158 46.704C61.646 46.064 61.23 45.072 60.91 43.728C60.526 42 60.334 38.704 60.334 33.84C60.334 32.048 59.918 30.352 59.086 28.752C58.318 27.088 57.294 25.648 56.014 24.432C54.798 23.152 53.422 21.84 51.886 20.496C50.35 19.152 48.91 17.904 47.566 16.752C46.286 15.6 45.134 14.256 44.11 12.72C43.086 11.184 42.446 9.616 42.19 8.016Z" fill="#F2A61C"/>
</svg>
