<svg width="44" height="44" viewBox="0 0 44 44" fill="none" xmlns="http://www.w3.org/2000/svg">
<path d="M22 3.66675C11.88 3.66675 3.66669 11.8801 3.66669 22.0001C3.66669 32.1201 11.88 40.3334 22 40.3334C32.12 40.3334 40.3334 32.1201 40.3334 22.0001C40.3334 11.8801 32.12 3.66675 22 3.66675ZM22 11.0001C25.5384 11.0001 28.4167 13.8784 28.4167 17.4167C28.4167 20.9551 25.5384 23.8334 22 23.8334C18.4617 23.8334 15.5834 20.9551 15.5834 17.4167C15.5834 13.8784 18.4617 11.0001 22 11.0001ZM22 36.6667C18.2784 36.6667 13.8784 35.1634 10.7434 31.3867C13.955 28.8681 17.9186 27.4994 22 27.4994C26.0815 27.4994 30.045 28.8681 33.2567 31.3867C30.1217 35.1634 25.7217 36.6667 22 36.6667Z" fill="#0F0E0E"/>
</svg>
