<svg width="85" height="32" viewBox="0 0 85 32" fill="none" xmlns="http://www.w3.org/2000/svg">
<path d="M26.056 13.408C26.7813 13.3653 27.4213 13.5147 27.976 13.856C28.5307 14.1973 28.808 14.6453 28.808 15.2C28.808 16.1387 28.0827 16.736 26.632 16.992C26.2053 17.0347 25.5227 17.1413 24.584 17.312C23.6453 17.44 23.048 17.5253 22.792 17.568C22.536 17.6107 22.0667 17.696 21.384 17.824C20.744 17.952 20.1893 18.1013 19.72 18.272C19.2507 18.4 18.632 18.5707 17.864 18.784C17.096 18.9973 16.2427 19.2533 15.304 19.552C12.8293 20.32 11.1653 20.9813 10.312 21.536C8.47733 22.7307 7.56 24.4587 7.56 26.72C7.56 28.8107 7.432 30.2827 7.176 31.136C5.81067 30.9227 4.95733 30.112 4.616 28.704C4.18933 26.912 3.69867 25.696 3.144 25.056C3.05867 24.9707 2.888 24.8213 2.632 24.608C2.41867 24.3947 2.29067 24.2667 2.248 24.224C2.20533 24.1813 2.09867 24.0747 1.928 23.904C1.8 23.7333 1.736 23.6267 1.736 23.584C1.736 23.4987 1.69333 23.392 1.608 23.264C1.52267 23.136 1.50133 23.0507 1.544 23.008C1.58667 22.9227 1.608 22.816 1.608 22.688C1.65067 22.56 1.69333 22.4533 1.736 22.368C1.82133 22.24 1.90667 22.112 1.992 21.984C2.12 21.8133 2.26933 21.6427 2.44 21.472C2.52533 21.344 2.67467 21.1733 2.888 20.96C3.10133 20.7467 3.22933 20.6187 3.272 20.576C3.31467 20.4907 3.4 20.384 3.528 20.256C3.656 20.0853 3.72 19.936 3.72 19.808C3.76267 19.68 3.82667 19.5093 3.912 19.296C3.99733 19.0827 4.08267 18.8267 4.168 18.528C4.63733 16.5227 4.21067 15.4987 2.888 15.456C2.03467 15.4133 1.416 15.008 1.032 14.24C0.648 13.472 0.797333 12.832 1.48 12.32C2.07733 11.8933 2.54667 11.5093 2.888 11.168C3.22933 10.8267 3.54933 10.336 3.848 9.696C4.18933 9.056 4.38133 8.33066 4.424 7.52C4.552 5.64267 5.128 4.42666 6.152 3.872C6.23733 3.95733 6.344 4.064 6.472 4.192C6.64267 4.27733 6.74933 4.36266 6.792 4.448C6.87733 4.53333 6.984 4.64 7.112 4.768C7.24 4.85333 7.32533 4.96 7.368 5.088C7.45333 5.216 7.53867 5.38667 7.624 5.6C7.70933 5.81333 7.79467 6.048 7.88 6.304L8.712 8.864C9.224 8.69333 9.928 8.416 10.824 8.032C11.7627 7.60533 12.5733 7.22133 13.256 6.88C13.9813 6.53867 14.8347 6.19733 15.816 5.856C16.84 5.472 17.7147 5.19467 18.44 5.024C19.208 4.85333 20.0613 4.74666 21 4.704C21.9813 4.66133 22.8133 4.78933 23.496 5.088C24.008 5.25867 24.456 5.68533 24.84 6.368C23.432 7.264 20.9573 8.30933 17.416 9.504C13.9173 10.656 11.5493 11.5307 10.312 12.128C7.92267 13.28 7.048 15.2427 7.688 18.016C9.65067 17.76 12.6587 16.9707 16.712 15.648C20.7653 14.3253 23.88 13.5787 26.056 13.408ZM82.1185 13.408C82.8438 13.3653 83.4838 13.5147 84.0385 13.856C84.5932 14.1973 84.8705 14.6453 84.8705 15.2C84.8705 16.1387 84.1452 16.736 82.6945 16.992C82.2678 17.0347 81.5852 17.1413 80.6465 17.312C79.7078 17.44 79.1105 17.5253 78.8545 17.568C78.5985 17.6107 78.1292 17.696 77.4465 17.824C76.8065 17.952 76.2518 18.1013 75.7825 18.272C75.3132 18.4 74.6945 18.5707 73.9265 18.784C73.1585 18.9973 72.3052 19.2533 71.3665 19.552C68.8918 20.32 67.2278 20.9813 66.3745 21.536C64.5398 22.7307 63.6225 24.4587 63.6225 26.72C63.6225 28.8107 63.4945 30.2827 63.2385 31.136C61.8732 30.9227 61.0198 30.112 60.6785 28.704C60.2518 26.912 59.7612 25.696 59.2065 25.056C59.1212 24.9707 58.9505 24.8213 58.6945 24.608C58.4812 24.3947 58.3532 24.2667 58.3105 24.224C58.2678 24.1813 58.1612 24.0747 57.9905 23.904C57.8625 23.7333 57.7985 23.6267 57.7985 23.584C57.7985 23.4987 57.7558 23.392 57.6705 23.264C57.5852 23.136 57.5638 23.0507 57.6065 23.008C57.6492 22.9227 57.6705 22.816 57.6705 22.688C57.7132 22.56 57.7558 22.4533 57.7985 22.368C57.8838 22.24 57.9692 22.112 58.0545 21.984C58.1825 21.8133 58.3318 21.6427 58.5025 21.472C58.5878 21.344 58.7372 21.1733 58.9505 20.96C59.1638 20.7467 59.2918 20.6187 59.3345 20.576C59.3772 20.4907 59.4625 20.384 59.5905 20.256C59.7185 20.0853 59.7825 19.936 59.7825 19.808C59.8252 19.68 59.8892 19.5093 59.9745 19.296C60.0598 19.0827 60.1452 18.8267 60.2305 18.528C60.6998 16.5227 60.2732 15.4987 58.9505 15.456C58.0972 15.4133 57.4785 15.008 57.0945 14.24C56.7105 13.472 56.8598 12.832 57.5425 12.32C58.1398 11.8933 58.6092 11.5093 58.9505 11.168C59.2918 10.8267 59.6118 10.336 59.9105 9.696C60.2518 9.056 60.4438 8.33066 60.4865 7.52C60.6145 5.64267 61.1905 4.42666 62.2145 3.872C62.2998 3.95733 62.4065 4.064 62.5345 4.192C62.7052 4.27733 62.8118 4.36266 62.8545 4.448C62.9398 4.53333 63.0465 4.64 63.1745 4.768C63.3025 4.85333 63.3878 4.96 63.4305 5.088C63.5158 5.216 63.6012 5.38667 63.6865 5.6C63.7718 5.81333 63.8572 6.048 63.9425 6.304L64.7745 8.864C65.2865 8.69333 65.9905 8.416 66.8865 8.032C67.8252 7.60533 68.6358 7.22133 69.3185 6.88C70.0438 6.53867 70.8972 6.19733 71.8785 5.856C72.9025 5.472 73.7772 5.19467 74.5025 5.024C75.2705 4.85333 76.1238 4.74666 77.0625 4.704C78.0438 4.66133 78.8758 4.78933 79.5585 5.088C80.0705 5.25867 80.5185 5.68533 80.9025 6.368C79.4945 7.264 77.0198 8.30933 73.4785 9.504C69.9798 10.656 67.6118 11.5307 66.3745 12.128C63.9852 13.28 63.1105 15.2427 63.7505 18.016C65.7132 17.76 68.7212 16.9707 72.7745 15.648C76.8278 14.3253 79.9425 13.5787 82.1185 13.408Z" fill="#0F0E0E"/>
<path d="M28.46 5.344C29.1853 5.04533 29.9533 4.91733 30.764 4.96C31.5747 5.00267 32.2147 5.344 32.684 5.984C34.476 8.58667 35.948 10.4427 37.1 11.552L40.556 14.944C41.6227 13.9627 43.1587 12.5547 45.164 10.72C47.1693 8.84267 48.684 7.392 49.708 6.368C50.2627 5.856 50.9027 5.19467 51.628 4.384C52.396 3.53067 52.9507 2.93333 53.292 2.592C53.676 2.25067 54.2093 1.84533 54.892 1.376C55.5747 0.906665 56.364 0.479997 57.26 0.0959969C57.4307 0.0533307 57.7507 0.287998 58.22 0.799999C58.6893 1.26933 58.8813 1.65333 58.796 1.952C58.796 2.25067 58.6893 2.57066 58.476 2.912C58.3053 3.21066 58.0493 3.552 57.708 3.936C57.3667 4.27733 57.0467 4.576 56.748 4.832C56.4493 5.088 56.0653 5.408 55.596 5.792C55.1267 6.13333 54.8493 6.32533 54.764 6.368C54.252 7.008 53.3347 7.92533 52.012 9.12C50.6893 10.3147 49.516 11.4027 48.492 12.384C47.468 13.3653 46.5507 14.6027 45.74 16.096C44.9293 17.5893 44.5667 19.0613 44.652 20.512C44.9507 25.2907 44.9293 28.3627 44.588 29.728C44.2893 30.88 43.7987 31.52 43.116 31.648C42.604 31.6907 42.156 31.52 41.772 31.136C41.4307 30.7093 41.1533 30.048 40.94 29.152C40.684 28 40.556 25.8027 40.556 22.56C40.556 21.3653 40.2787 20.2347 39.724 19.168C39.212 18.0587 38.5293 17.0987 37.676 16.288C36.8653 15.4347 35.948 14.56 34.924 13.664C33.9 12.768 32.94 11.936 32.044 11.168C31.1907 10.4 30.4227 9.504 29.74 8.48C29.0573 7.456 28.6307 6.41066 28.46 5.344Z" fill="#F2A61C"/>
</svg>
