<svg width="130" height="130" viewBox="0 0 130 130" fill="none" xmlns="http://www.w3.org/2000/svg">
<rect width="130" height="130" rx="65" fill="#EDE3E3"/>
<path d="M65 73.6718C66.9152 73.6718 68.5341 73.0112 69.8565 71.69C71.1789 70.3688 71.8402 68.7499 71.8402 66.8335C71.8402 64.9171 71.1789 63.2982 69.8565 61.977C68.5341 60.6558 66.9152 59.9946 65 59.9933C63.0848 59.9921 61.4659 60.6533 60.1435 61.977C58.8211 63.3007 58.1598 64.9195 58.1598 66.8335C58.1598 68.7475 58.8211 70.3663 60.1435 71.69C61.4659 73.0137 63.0848 73.6749 65 73.6737M65 71.8403C63.5761 71.8403 62.3857 71.3618 61.4287 70.4048C60.4717 69.4478 59.9932 68.2574 59.9932 66.8335C59.9932 65.4096 60.4717 64.2192 61.4287 63.2622C62.3857 62.3052 63.5761 61.8267 65 61.8267C66.4239 61.8267 67.6143 62.3052 68.5713 63.2622C69.5283 64.2192 70.0068 65.4096 70.0068 66.8335C70.0068 68.2574 69.5283 69.4478 68.5713 70.4048C67.6143 71.3618 66.4239 71.8403 65 71.8403ZM51.4627 79.6668C50.6181 79.6668 49.9135 79.3845 49.3488 78.8198C48.7842 78.2552 48.5012 77.5499 48.5 76.7042V56.9628C48.5 56.1183 48.7829 55.4137 49.3488 54.849C49.9147 54.2843 50.6187 54.0014 51.4608 54.0002H56.8838L59.3882 51.2777C59.6534 50.9819 59.9754 50.7503 60.3543 50.5828C60.7344 50.4166 61.1372 50.3335 61.5625 50.3335H68.4375C68.8628 50.3335 69.2656 50.4172 69.6457 50.5847C70.0246 50.7509 70.3466 50.9825 70.6118 51.2795L73.118 54.0002H78.541C79.3843 54.0002 80.0889 54.2831 80.6548 54.849C81.2207 55.4149 81.5024 56.1195 81.5 56.9628V76.706C81.5 77.5493 81.2177 78.2539 80.653 78.8198C80.0883 79.3857 79.3837 79.6681 78.5392 79.6668H51.4627ZM51.4627 77.8335H78.5392C78.8679 77.8335 79.1381 77.7278 79.3495 77.5163C79.5609 77.3049 79.6667 77.0348 79.6667 76.706V56.961C79.6667 56.6322 79.5609 56.3621 79.3495 56.1507C79.1381 55.9392 78.8679 55.8335 78.5392 55.8335H72.3113L68.9307 52.1668H61.0693L57.6887 55.8335H51.4608C51.1321 55.8335 50.8619 55.9392 50.6505 56.1507C50.4391 56.3621 50.3333 56.6328 50.3333 56.9628V76.706C50.3333 77.0348 50.4391 77.3049 50.6505 77.5163C50.8619 77.7278 51.1327 77.8335 51.4627 77.8335Z" fill="black"/>
</svg>
