<svg width="494" height="58" viewBox="0 0 494 58" fill="none" xmlns="http://www.w3.org/2000/svg">
<path d="M38.584 24.112C39.672 24.048 40.632 24.272 41.464 24.784C42.296 25.296 42.712 25.968 42.712 26.8C42.712 28.208 41.624 29.104 39.448 29.488C38.808 29.552 37.784 29.712 36.376 29.968C34.968 30.16 34.072 30.288 33.688 30.352C33.304 30.416 32.6 30.544 31.576 30.736C30.616 30.928 29.784 31.152 29.08 31.408C28.376 31.6 27.448 31.856 26.296 32.176C25.144 32.496 23.864 32.88 22.456 33.328C18.744 34.48 16.248 35.472 14.968 36.304C12.216 38.096 10.84 40.688 10.84 44.08C10.84 47.216 10.648 49.424 10.264 50.704C8.216 50.384 6.936 49.168 6.424 47.056C5.784 44.368 5.048 42.544 4.216 41.584C4.088 41.456 3.832 41.232 3.448 40.912C3.128 40.592 2.936 40.4 2.872 40.336C2.808 40.272 2.648 40.112 2.392 39.856C2.2 39.6 2.104 39.44 2.104 39.376C2.104 39.248 2.04 39.088 1.912 38.896C1.784 38.704 1.752 38.576 1.816 38.512C1.88 38.384 1.912 38.224 1.912 38.032C1.976 37.84 2.04 37.68 2.104 37.552C2.232 37.36 2.36 37.168 2.488 36.976C2.68 36.72 2.904 36.464 3.16 36.208C3.288 36.016 3.512 35.76 3.832 35.44C4.152 35.12 4.344 34.928 4.408 34.864C4.472 34.736 4.6 34.576 4.792 34.384C4.984 34.128 5.08 33.904 5.08 33.712C5.144 33.52 5.24 33.264 5.368 32.944C5.496 32.624 5.624 32.24 5.752 31.792C6.456 28.784 5.816 27.248 3.832 27.184C2.552 27.12 1.624 26.512 1.048 25.36C0.472 24.208 0.696 23.248 1.72 22.48C2.616 21.84 3.32 21.264 3.832 20.752C4.344 20.24 4.824 19.504 5.272 18.544C5.784 17.584 6.072 16.496 6.136 15.28C6.328 12.464 7.192 10.64 8.728 9.808C8.856 9.936 9.016 10.096 9.208 10.288C9.464 10.416 9.624 10.544 9.688 10.672C9.816 10.8 9.976 10.96 10.168 11.152C10.36 11.28 10.488 11.44 10.552 11.632C10.68 11.824 10.808 12.08 10.936 12.4C11.064 12.72 11.192 13.072 11.32 13.456L12.568 17.296C13.336 17.04 14.392 16.624 15.736 16.048C17.144 15.408 18.36 14.832 19.384 14.32C20.472 13.808 21.752 13.296 23.224 12.784C24.76 12.208 26.072 11.792 27.16 11.536C28.312 11.28 29.592 11.12 31 11.056C32.472 10.992 33.72 11.184 34.744 11.632C35.512 11.888 36.184 12.528 36.76 13.552C34.648 14.896 30.936 16.464 25.624 18.256C20.376 19.984 16.824 21.296 14.968 22.192C11.384 23.92 10.072 26.864 11.032 31.024C13.976 30.64 18.488 29.456 24.568 27.472C30.648 25.488 35.32 24.368 38.584 24.112ZM47.854 0.688C48.75 0.431999 49.518 0.847998 50.158 1.936C50.862 2.96 51.15 4.112 51.022 5.392C50.958 6.672 50.382 7.376 49.294 7.504C47.95 7.696 47.022 7.152 46.51 5.872C46.062 4.592 45.998 3.12 46.318 1.456C46.382 1.072 46.51 0.847998 46.702 0.783998C46.958 0.719999 47.342 0.688 47.854 0.688ZM47.086 50.704C46.574 49.744 46.254 48.624 46.126 47.344C46.062 46.064 46.126 44.912 46.318 43.888C46.51 42.8 46.67 41.456 46.798 39.856C46.99 38.256 47.086 36.848 47.086 35.632C47.022 34.608 47.278 32.624 47.854 29.68C48.43 26.736 48.686 25.168 48.622 24.976C48.622 24.784 48.558 24.176 48.43 23.152C48.366 22.128 48.302 21.36 48.238 20.848C48.238 20.272 48.238 19.6 48.238 18.832C48.302 18.064 48.462 17.456 48.718 17.008C48.974 16.496 49.326 16.176 49.774 16.048C50.734 16.176 51.662 16.976 52.558 18.448C53.454 19.856 53.806 21.296 53.614 22.768C53.742 23.28 53.646 24.496 53.326 26.416C53.006 28.336 52.622 30.224 52.174 32.08C51.79 33.872 51.598 34.768 51.598 34.768C51.598 35.344 51.566 36.208 51.502 37.36C51.438 38.512 51.374 39.472 51.31 40.24C51.246 41.008 51.15 41.968 51.022 43.12C50.894 44.208 50.702 45.136 50.446 45.904C50.254 46.672 49.998 47.44 49.678 48.208C49.422 48.912 49.07 49.488 48.622 49.936C48.174 50.32 47.662 50.576 47.086 50.704ZM62.6958 15.088C62.9518 15.472 63.3038 16.048 63.7518 16.816C64.2638 17.52 64.6158 18.032 64.8078 18.352C64.9998 18.672 65.1918 19.152 65.3838 19.792C65.5758 20.432 65.6718 21.136 65.6718 21.904C65.6718 22.352 65.6718 22.992 65.6718 23.824C65.7358 24.592 65.7678 25.168 65.7678 25.552C65.7678 25.872 65.7998 26.352 65.8638 26.992C65.9278 27.568 65.9918 28.112 66.0558 28.624C66.1838 29.136 66.3118 29.68 66.4398 30.256C66.5678 30.192 67.4318 29.264 69.0318 27.472C70.6318 25.68 72.0078 24.368 73.1598 23.536C74.3118 22.704 75.3998 22.288 76.4238 22.288C77.1278 22.288 77.7038 22.48 78.1518 22.864C78.6638 23.184 79.0158 23.504 79.2078 23.824C79.3998 24.144 79.7198 24.784 80.1678 25.744C80.6158 26.64 81.1278 29.296 81.7038 33.712C82.3438 38.064 82.8238 40.656 83.1438 41.488C83.3998 43.216 86.6958 44.528 93.0318 45.424C92.7118 46.96 91.6558 48.208 89.8638 49.168C88.0718 50.128 86.1198 50.512 84.0078 50.32C81.8958 50.064 80.3598 49.2 79.3998 47.728C78.2478 45.936 77.5118 43.792 77.1918 41.296C76.4238 34.128 75.8798 30.192 75.5598 29.488C68.5838 34.352 65.0318 41.68 64.9038 51.472C63.5598 51.344 62.5038 50.832 61.7358 49.936C61.0318 49.04 60.6158 47.888 60.4878 46.48C60.3598 45.008 60.3278 43.6 60.3918 42.256C60.4558 40.848 60.5838 39.248 60.7758 37.456C61.0318 35.6 61.1598 34.224 61.1598 33.328C61.1598 31.856 60.9358 29.584 60.4878 26.512C60.1038 23.44 60.0398 21.072 60.2958 19.408C60.5518 17.68 61.3518 16.24 62.6958 15.088ZM131.724 57.52C130.636 57.264 129.708 56.688 128.94 55.792C128.236 54.896 127.724 53.744 127.404 52.336C127.148 50.928 126.988 49.584 126.924 48.304C126.86 47.024 126.796 45.488 126.732 43.696C126.668 41.84 126.572 40.4 126.444 39.376C125.74 39.76 123.532 41.008 119.82 43.12C116.172 45.232 113.324 46.768 111.276 47.728C107.564 49.456 104.268 50.384 101.388 50.512C99.7883 50.576 98.2523 50.064 96.7803 48.976C95.3083 47.824 94.5403 46.544 94.4763 45.136C94.4763 42.96 96.2683 40.752 99.8523 38.512C101.196 37.68 103.18 36.4 105.804 34.672C108.492 32.88 110.444 31.632 111.66 30.928C112.876 30.16 114.508 29.264 116.556 28.24C118.604 27.216 120.652 26.384 122.7 25.744C125.132 24.848 126.668 23.792 127.308 22.576C128.012 21.36 128.236 19.12 127.98 15.856C127.98 15.6 127.948 15.088 127.884 14.32C127.884 13.488 127.852 12.848 127.788 12.4C127.788 11.952 127.788 11.376 127.788 10.672C127.788 9.904 127.82 9.296 127.884 8.848C128.012 8.4 128.14 7.952 128.268 7.504C128.46 6.992 128.716 6.64 129.036 6.448C129.42 6.192 129.836 6.032 130.284 5.96799C131.18 5.904 131.852 6.096 132.3 6.544C132.812 6.928 133.1 7.568 133.164 8.464C133.228 9.36 133.228 10.128 133.164 10.768C133.164 11.408 133.068 12.368 132.876 13.648C132.684 14.864 132.588 15.6 132.588 15.856C132.204 19.248 131.98 23.056 131.916 27.28C131.916 31.504 131.98 36.336 132.108 41.776C132.236 47.216 132.3 51.088 132.3 53.392C132.3 54.864 132.108 56.24 131.724 57.52ZM100.716 44.656C102.572 44.976 104.46 44.88 106.38 44.368C108.3 43.856 110.636 42.928 113.388 41.584C116.204 40.24 117.772 39.504 118.092 39.376C118.54 39.184 119.244 38.928 120.204 38.608C121.228 38.288 122.06 38.032 122.7 37.84C123.34 37.584 124.012 37.232 124.716 36.784C125.42 36.336 125.964 35.824 126.348 35.248C126.732 34.608 126.924 33.872 126.924 33.04C126.924 32.144 126.764 31.216 126.444 30.256C118.188 31.856 109.612 36.656 100.716 44.656ZM182.721 12.016C183.809 11.568 184.961 11.376 186.177 11.44C187.393 11.504 188.353 12.016 189.057 12.976C191.745 16.88 193.953 19.664 195.681 21.328L200.865 26.416C202.465 24.944 204.769 22.832 207.777 20.08C210.785 17.264 213.057 15.088 214.593 13.552C215.425 12.784 216.385 11.792 217.473 10.576C218.625 9.296 219.457 8.4 219.969 7.888C220.545 7.376 221.345 6.768 222.369 6.064C223.393 5.36 224.577 4.72 225.921 4.144C226.177 4.08 226.657 4.432 227.361 5.2C228.065 5.904 228.353 6.48 228.225 6.928C228.225 7.376 228.065 7.856 227.745 8.368C227.489 8.816 227.105 9.328 226.593 9.904C226.081 10.416 225.601 10.864 225.153 11.248C224.705 11.632 224.129 12.112 223.425 12.688C222.721 13.2 222.305 13.488 222.177 13.552C221.409 14.512 220.033 15.888 218.049 17.68C216.065 19.472 214.305 21.104 212.769 22.576C211.233 24.048 209.857 25.904 208.641 28.144C207.425 30.384 206.881 32.592 207.009 34.768C207.457 41.936 207.425 46.544 206.913 48.592C206.465 50.32 205.729 51.28 204.705 51.472C203.937 51.536 203.265 51.28 202.689 50.704C202.177 50.064 201.761 49.072 201.441 47.728C201.057 46 200.865 42.704 200.865 37.84C200.865 36.048 200.449 34.352 199.617 32.752C198.849 31.088 197.825 29.648 196.545 28.432C195.329 27.152 193.953 25.84 192.417 24.496C190.881 23.152 189.441 21.904 188.097 20.752C186.817 19.6 185.665 18.256 184.641 16.72C183.617 15.184 182.977 13.616 182.721 12.016ZM228.741 48.88C226.629 50.288 224.901 50.64 223.557 49.936C222.213 49.168 221.541 47.344 221.541 44.464C221.541 40.752 223.717 36.176 228.069 30.736C232.421 25.232 236.293 21.52 239.685 19.6C241.477 18.64 242.693 18.096 243.333 17.968C243.973 17.776 245.285 17.84 247.269 18.16C251.237 18.672 253.157 21.328 253.029 26.128C252.901 28.688 252.261 31.12 251.109 33.424C249.957 35.664 248.389 37.616 246.405 39.28C244.421 40.944 242.309 42.416 240.069 43.696C237.893 44.912 235.493 46 232.869 46.96C232.869 46.96 232.645 47.056 232.197 47.248C231.813 47.376 231.301 47.6 230.661 47.92C230.085 48.176 229.445 48.496 228.741 48.88ZM226.053 43.888C228.741 44.08 231.909 43.28 235.557 41.488C239.269 39.696 242.469 37.36 245.157 34.48C247.845 31.6 249.061 28.912 248.805 26.416C248.677 25.264 248.453 24.432 248.133 23.92C247.877 23.344 247.333 23.056 246.501 23.056C245.605 23.056 244.581 23.376 243.429 24.016C242.341 24.656 240.997 25.552 239.397 26.704C237.797 27.856 236.869 28.528 236.613 28.72C234.757 29.936 232.709 32.176 230.469 35.44C228.229 38.64 226.757 41.456 226.053 43.888ZM261.973 22.096C261.013 32.208 261.045 39.472 262.069 43.888C264.757 43.696 267.701 42.544 270.901 40.432C274.165 38.256 276.277 36.144 277.237 34.096C277.941 33.072 278.453 30.416 278.773 26.128C279.157 21.776 279.669 19.12 280.309 18.16C282.293 18.864 283.541 20.208 284.053 22.192C284.629 24.176 284.885 27.12 284.821 31.024C284.821 31.536 284.949 32.688 285.205 34.48C285.461 36.208 285.589 37.328 285.589 37.84C285.461 38.864 285.621 39.728 286.069 40.432C286.581 41.072 287.317 41.616 288.277 42.064C289.237 42.512 290.133 42.864 290.965 43.12C291.797 43.312 292.789 43.536 293.941 43.792C294.261 43.792 294.485 43.824 294.613 43.888C293.653 44.848 292.853 45.616 292.213 46.192C291.573 46.704 290.709 47.216 289.621 47.728C288.533 48.176 287.413 48.4 286.261 48.4C283.637 48.4 281.781 47.248 280.693 44.944C280.117 43.856 279.477 42.512 278.773 40.912C271.093 46.992 265.301 50.128 261.397 50.32C260.565 50.32 259.829 50.16 259.189 49.84C258.613 49.52 258.165 49.104 257.845 48.592C257.525 48.08 257.269 47.376 257.077 46.48C256.885 45.584 256.789 44.752 256.789 43.984C256.789 43.216 256.789 42.256 256.789 41.104C256.917 35.344 256.629 28.56 255.925 20.752C255.861 19.536 256.085 18.32 256.597 17.104C257.173 15.888 257.909 15.216 258.805 15.088C259.637 15.024 260.405 15.856 261.109 17.584C261.813 19.312 262.101 20.816 261.973 22.096ZM302.674 50.704C300.754 50.448 299.218 49.488 298.066 47.824C296.978 46.096 296.338 43.984 296.146 41.488C296.018 38.992 296.05 36.56 296.242 34.192C296.434 31.824 296.818 29.52 297.394 27.28C297.394 26.896 297.554 24.912 297.874 21.328C298.258 17.68 299.346 15.856 301.138 15.856C301.65 15.856 302.098 15.92 302.482 16.048C302.866 16.176 303.154 16.4 303.346 16.72C303.602 17.04 303.794 17.328 303.922 17.584C304.114 17.84 304.21 18.224 304.21 18.736C304.21 19.184 304.21 19.568 304.21 19.888C304.274 20.208 304.242 20.688 304.114 21.328C304.05 21.904 303.986 22.32 303.922 22.576C303.922 22.832 303.858 23.28 303.73 23.92C303.602 24.496 303.506 24.848 303.442 24.976C304.978 25.36 307.762 25.424 311.794 25.168C315.89 24.912 318.674 25.072 320.146 25.648C321.554 26.096 322.802 26.864 323.89 27.952C322.93 28.592 321.298 29.136 318.994 29.584C316.69 29.968 314.514 30.256 312.466 30.448C310.418 30.576 308.498 31.024 306.706 31.792C304.914 32.56 303.858 33.648 303.538 35.056C303.218 36.528 303.058 39.152 303.058 42.928C303.058 46.704 302.93 49.296 302.674 50.704ZM412.553 24.112C413.641 24.048 414.601 24.272 415.433 24.784C416.265 25.296 416.681 25.968 416.681 26.8C416.681 28.208 415.593 29.104 413.417 29.488C412.777 29.552 411.753 29.712 410.345 29.968C408.937 30.16 408.041 30.288 407.657 30.352C407.273 30.416 406.569 30.544 405.545 30.736C404.585 30.928 403.753 31.152 403.049 31.408C402.345 31.6 401.417 31.856 400.265 32.176C399.113 32.496 397.833 32.88 396.425 33.328C392.713 34.48 390.217 35.472 388.937 36.304C386.185 38.096 384.809 40.688 384.809 44.08C384.809 47.216 384.617 49.424 384.233 50.704C382.185 50.384 380.905 49.168 380.393 47.056C379.753 44.368 379.017 42.544 378.185 41.584C378.057 41.456 377.801 41.232 377.417 40.912C377.097 40.592 376.905 40.4 376.841 40.336C376.777 40.272 376.617 40.112 376.361 39.856C376.169 39.6 376.073 39.44 376.073 39.376C376.073 39.248 376.009 39.088 375.881 38.896C375.753 38.704 375.721 38.576 375.785 38.512C375.849 38.384 375.881 38.224 375.881 38.032C375.945 37.84 376.009 37.68 376.073 37.552C376.201 37.36 376.329 37.168 376.457 36.976C376.649 36.72 376.873 36.464 377.129 36.208C377.257 36.016 377.481 35.76 377.801 35.44C378.121 35.12 378.313 34.928 378.377 34.864C378.441 34.736 378.569 34.576 378.761 34.384C378.953 34.128 379.049 33.904 379.049 33.712C379.113 33.52 379.209 33.264 379.337 32.944C379.465 32.624 379.593 32.24 379.721 31.792C380.425 28.784 379.785 27.248 377.801 27.184C376.521 27.12 375.593 26.512 375.017 25.36C374.441 24.208 374.665 23.248 375.689 22.48C376.585 21.84 377.289 21.264 377.801 20.752C378.313 20.24 378.793 19.504 379.241 18.544C379.753 17.584 380.041 16.496 380.105 15.28C380.297 12.464 381.161 10.64 382.697 9.808C382.825 9.936 382.985 10.096 383.177 10.288C383.433 10.416 383.593 10.544 383.657 10.672C383.785 10.8 383.945 10.96 384.137 11.152C384.329 11.28 384.457 11.44 384.521 11.632C384.649 11.824 384.777 12.08 384.905 12.4C385.033 12.72 385.161 13.072 385.289 13.456L386.537 17.296C387.305 17.04 388.361 16.624 389.705 16.048C391.113 15.408 392.329 14.832 393.353 14.32C394.441 13.808 395.721 13.296 397.193 12.784C398.729 12.208 400.041 11.792 401.129 11.536C402.281 11.28 403.561 11.12 404.969 11.056C406.441 10.992 407.689 11.184 408.713 11.632C409.481 11.888 410.153 12.528 410.729 13.552C408.617 14.896 404.905 16.464 399.593 18.256C394.345 19.984 390.793 21.296 388.937 22.192C385.353 23.92 384.041 26.864 385.001 31.024C387.945 30.64 392.457 29.456 398.537 27.472C404.617 25.488 409.289 24.368 412.553 24.112ZM425.567 22.096C424.607 32.208 424.639 39.472 425.663 43.888C428.351 43.696 431.295 42.544 434.495 40.432C437.759 38.256 439.871 36.144 440.831 34.096C441.535 33.072 442.047 30.416 442.367 26.128C442.751 21.776 443.263 19.12 443.903 18.16C445.887 18.864 447.135 20.208 447.647 22.192C448.223 24.176 448.479 27.12 448.415 31.024C448.415 31.536 448.543 32.688 448.799 34.48C449.055 36.208 449.183 37.328 449.183 37.84C449.055 38.864 449.215 39.728 449.663 40.432C450.175 41.072 450.911 41.616 451.871 42.064C452.831 42.512 453.727 42.864 454.559 43.12C455.391 43.312 456.383 43.536 457.535 43.792C457.855 43.792 458.079 43.824 458.207 43.888C457.247 44.848 456.447 45.616 455.807 46.192C455.167 46.704 454.303 47.216 453.215 47.728C452.127 48.176 451.007 48.4 449.855 48.4C447.231 48.4 445.375 47.248 444.287 44.944C443.711 43.856 443.071 42.512 442.367 40.912C434.687 46.992 428.895 50.128 424.991 50.32C424.159 50.32 423.423 50.16 422.783 49.84C422.207 49.52 421.759 49.104 421.439 48.592C421.119 48.08 420.863 47.376 420.671 46.48C420.479 45.584 420.383 44.752 420.383 43.984C420.383 43.216 420.383 42.256 420.383 41.104C420.511 35.344 420.223 28.56 419.519 20.752C419.455 19.536 419.679 18.32 420.191 17.104C420.767 15.888 421.503 15.216 422.399 15.088C423.231 15.024 423.999 15.856 424.703 17.584C425.407 19.312 425.695 20.816 425.567 22.096ZM463.196 15.088C463.452 15.472 463.804 16.048 464.252 16.816C464.764 17.52 465.116 18.032 465.308 18.352C465.5 18.672 465.692 19.152 465.884 19.792C466.076 20.432 466.172 21.136 466.172 21.904C466.172 22.352 466.172 22.992 466.172 23.824C466.236 24.592 466.268 25.168 466.268 25.552C466.268 25.872 466.3 26.352 466.364 26.992C466.428 27.568 466.492 28.112 466.556 28.624C466.684 29.136 466.812 29.68 466.94 30.256C467.068 30.192 467.932 29.264 469.532 27.472C471.132 25.68 472.508 24.368 473.66 23.536C474.812 22.704 475.9 22.288 476.924 22.288C477.628 22.288 478.204 22.48 478.652 22.864C479.164 23.184 479.516 23.504 479.708 23.824C479.9 24.144 480.22 24.784 480.668 25.744C481.116 26.64 481.628 29.296 482.204 33.712C482.844 38.064 483.324 40.656 483.644 41.488C483.9 43.216 487.196 44.528 493.532 45.424C493.212 46.96 492.156 48.208 490.364 49.168C488.572 50.128 486.62 50.512 484.508 50.32C482.396 50.064 480.86 49.2 479.9 47.728C478.748 45.936 478.012 43.792 477.692 41.296C476.924 34.128 476.38 30.192 476.06 29.488C469.084 34.352 465.532 41.68 465.404 51.472C464.06 51.344 463.004 50.832 462.236 49.936C461.532 49.04 461.116 47.888 460.988 46.48C460.86 45.008 460.828 43.6 460.892 42.256C460.956 40.848 461.084 39.248 461.276 37.456C461.532 35.6 461.66 34.224 461.66 33.328C461.66 31.856 461.436 29.584 460.988 26.512C460.604 23.44 460.54 21.072 460.796 19.408C461.052 17.68 461.852 16.24 463.196 15.088Z" fill="#110875"/>
</svg>
